Coordinates
version=1
nRows=4
nColumns=107
inDegrees=yes

Units are S.I. units (second, meters, Newtons, ...)
If the header above contains a line with 'inDegrees', this indicates whether rotational values are in degrees (yes) or radians (no).

endheader
time	sternoclavicular_r2	sternoclavicular_r3	unrotscap_r3	unrotscap_r2	acromioclavicular_r2	acromioclavicular_r3	acromioclavicular_r1	unrothum_r1	unrothum_r3	unrothum_r2	elv_angle	shoulder_elv	shoulder1_r2	shoulder_rot	elbow_flexion	pro_sup	deviation	flexion	proximal_distal_r1	proximal_distal_r3	cmc_flexion	cmc_abduction	mp_flexion	ip_flexion	mcp2_flexion	mcp2_abduction	pm2_flexion	md2_flexion	mcp3_flexion	mcp3_abduction	pm3_flexion	md3_flexion	mcp4_flexion	mcp4_abduction	pm4_flexion	md4_flexion	mcp5_flexion	mcp5_abduction	pm5_flexion	md5_flexion	bicpt_tx	bicpt_ty	bicpt_tz	bicpt2_tx	bicpt2_ty	bicpt2_tz	ptpt_tx	ptpt_ty	ptpt_tz	FCUpt_tx	FCUpt_ty	FCUpt_tz	EDCpt_tx	EDCpt_ty	EDCpt_tz	APLpt_tx	APLpt_ty	APLpt_tz	FPLpt_tx	FPLpt_ty	FPLpt_tz	FPLpt2_tx	FPLpt2_ty	FPLpt2_tz	PEC1pt2_tx	PEC1pt2_ty	PEC1pt2_tz	PEC1pt3_tx	PEC1pt3_ty	PEC1pt3_tz	PEC2pt2_tx	PEC2pt2_ty	PEC2pt2_tz	PEC2pt3_tx	PEC2pt3_ty	PEC2pt3_tz	PEC3pt2_tx	PEC3pt2_ty	PEC3pt2_tz	PEC3pt3_tx	PEC3pt3_ty	PEC3pt3_tz	DELT2pt2a_tx	DELT2pt2a_ty	DELT2pt2a_tz	DELT2pt2_tx	DELT2pt2_ty	DELT2pt2_tz	LAT1pt2_tx	LAT1pt2_ty	LAT1pt2_tz	LAT1pt3_tx	LAT1pt3_ty	LAT1pt3_tz	LAT2pt2_tx	LAT2pt2_ty	LAT2pt2_tz	LAT2pt3_tx	LAT2pt3_ty	LAT2pt3_tz	LAT3pt2_tx	LAT3pt2_ty	LAT3pt2_tz	LAT3pt3_tx	LAT3pt3_ty	LAT3pt3_tz
      1.76666667	     -0.31692981	      0.13423651	     -0.13423651	      0.31692981	     -0.06417184	      0.51861424	      0.23311353	     -0.23311353	     -0.51861424	      0.06417184	     99.86138854	     75.03594984	     -1.74291003	    -30.01167279	     31.85184006	     72.98194609	      0.29772018	     -0.05778412	      0.33149862	     -0.02889206	     21.99196516	    -11.15372932	    -24.11420288	      4.77743265	     14.67278232	      8.53221040	     36.37108841	    -21.55328600	     23.61053796	      2.35148825	     11.78089032	     13.83108340	     25.28304661	     -6.35068509	     -5.36631350	     18.01388055	     22.58818446	    -13.97480582	     -0.64939575	      5.12871410	      0.00095356	     -0.03125071	     -0.00488803	      0.01539171	     -0.01885271	     -0.00318655	      0.00215746	     -0.06838691	     -0.00592909	      0.01126869	     -0.18265452	     -0.00021095	     -0.00875781	      0.00288978	     -0.00038514	      0.00005633	      0.00002253	      0.00011265	      0.00007210	      0.00021629	      0.00012166	      0.00000700	     -0.00028111	     -0.00033733	      0.00245951	      0.00862914	      0.00600288	     -0.00804553	      0.01942599	     -0.01842551	      0.00245951	      0.00862914	      0.00600288	      0.00054193	      0.01800864	     -0.00946288	      0.00390489	      0.00479856	      0.01586144	      0.00000000	      0.00752834	      0.00000000	     -0.00704505	     -0.03255729	     -0.00620602	      0.01888326	     -0.00075749	     -0.00750444	     -0.00087542	      0.01467371	     -0.00600288	      0.00241783	      0.02117683	     -0.01750840	     -0.00587782	      0.01271444	     -0.00537758	     -0.01225588	      0.02684622	     -0.03005609	     -0.02301104	      0.01421516	     -0.00721179	     -0.01525732	      0.03101489	     -0.03755969
      1.80000000	     -0.31644638	      0.13403175	     -0.13403175	      0.31644638	     -0.06407396	      0.51782317	      0.23275795	     -0.23275795	     -0.51782317	      0.06407396	     99.78587991	     74.92149413	     -1.74159215	    -30.30008441	     32.28317397	     72.71508882	      0.29400251	     -0.05696825	      0.32825333	     -0.02848412	     20.93334843	    -11.98345370	    -24.51898840	      4.64413554	     15.58367055	      8.15640182	     36.93674698	    -21.39742965	     24.51339620	      2.34159763	     12.25620255	     13.97742167	     25.92564495	     -6.20646004	     -5.00830676	     18.13587504	     23.04380261	    -13.83182169	     -0.27974654	      5.22162419	      0.00096783	     -0.03130015	     -0.00489600	      0.01541126	     -0.01896988	     -0.00322733	      0.00217718	     -0.06837416	     -0.00590759	      0.01123912	     -0.18266256	     -0.00021565	     -0.00872579	      0.00287622	     -0.00037847	      0.00005557	      0.00002223	      0.00011114	      0.00007113	      0.00021339	      0.00012003	      0.00000954	     -0.00027989	     -0.00033586	      0.00245576	      0.00861598	      0.00599372	     -0.00803326	      0.01939636	     -0.01839740	      0.00245576	      0.00861598	      0.00599372	      0.00054110	      0.01798117	     -0.00944844	      0.00390051	      0.00479124	      0.01585052	      0.00000000	      0.00750524	      0.00000000	     -0.00703430	     -0.03250763	     -0.00618683	      0.01901044	     -0.00076735	     -0.00764548	     -0.00087408	      0.01465133	     -0.00599372	      0.00241414	      0.02114453	     -0.01748170	     -0.00586886	      0.01269504	     -0.00536938	     -0.01223719	      0.02680527	     -0.03001025	     -0.02297594	      0.01419347	     -0.00720079	     -0.01523405	      0.03096758	     -0.03750240
      1.83333333	     -0.31789626	      0.13464585	     -0.13464585	      0.31789626	     -0.06436753	      0.52019571	      0.23382439	     -0.23382439	     -0.52019571	      0.06436753	     99.53354010	     75.26476633	     -1.73718799	    -28.70258904	     31.70335143	     70.24016312	      0.28971912	     -0.14682187	      0.32448652	     -0.07341094	     20.26194770	    -11.47438560	    -23.82278917	      2.65375395	     18.80992703	      8.06165527	     37.72995887	    -21.54090372	     27.86899802	      2.08363040	     12.13202361	     14.36613910	     28.81731961	     -6.90526117	     -3.95669859	     19.43249898	     25.55695074	    -13.93493458	      2.20126198	      5.12796972	      0.00094865	     -0.03123369	     -0.00488529	      0.01558488	     -0.01881237	     -0.00360077	      0.00236004	     -0.06825591	     -0.00570822	      0.01096590	     -0.18273617	     -0.00025676	     -0.00842880	      0.00275150	     -0.00031848	      0.00013217	      0.00005287	      0.00026433	      0.00016917	      0.00050752	      0.00028548	      0.00001118	     -0.00027849	     -0.00033419	      0.00246701	      0.00865546	      0.00602119	     -0.00807006	      0.01948523	     -0.01848170	      0.00246701	      0.00865546	      0.00602119	      0.00054358	      0.01806356	     -0.00949173	      0.00391364	      0.00481319	      0.01588318	      0.00000000	      0.00757463	      0.00000000	     -0.00706653	     -0.03265657	     -0.00624446	      0.01829170	     -0.00071305	     -0.00687737	     -0.00087809	      0.01471846	     -0.00602119	      0.00242520	      0.02124141	     -0.01756179	     -0.00589575	      0.01275321	     -0.00539398	     -0.01229326	      0.02692808	     -0.03014775	     -0.02308121	      0.01425850	     -0.00723379	     -0.01530385	      0.03110946	     -0.03767423
      1.86666667	     -0.32875597	      0.13924551	     -0.13924551	      0.32875597	     -0.06656640	      0.53796620	      0.24181210	     -0.24181210	     -0.53796620	      0.06656640	     97.33925661	     77.83589737	     -1.69889052	    -17.10043228	     30.75619287	     59.23639724	      0.35268121	     -0.12917002	      0.37682936	     -0.06458501	     18.87376538	    -11.31530720	    -21.97325236	     -3.81563637	     20.95838348	      7.07603735	     37.55804696	    -22.49869851	     30.32362743	      1.02980317	     10.61777347	     15.78523860	     30.76890213	     -7.89367091	     -5.19278887	     23.90291443	     27.39497657	    -14.05237621	      2.56582278	      5.08841742	      0.00091732	     -0.03112513	     -0.00486781	      0.01618712	     -0.01855507	     -0.00515713	      0.00317310	     -0.06773018	     -0.00482181	      0.00977403	     -0.18304237	     -0.00038366	     -0.00710835	      0.00221986	     -0.00009194	      0.00011819	      0.00004727	      0.00023637	      0.00015128	      0.00045384	      0.00025528	      0.00001460	     -0.00027395	     -0.00032873	      0.00255129	      0.00895114	      0.00622688	     -0.00834574	      0.02015087	     -0.01911305	      0.00255129	      0.00895114	      0.00622688	      0.00056215	      0.01868063	     -0.00981598	      0.00401061	      0.00497761	      0.01611878	      0.00000000	      0.00810486	      0.00000000	     -0.00730793	     -0.03377216	     -0.00668459	      0.01204689	     -0.00034460	     -0.00235943	     -0.00090809	      0.01522126	     -0.00622688	      0.00250805	      0.02196704	     -0.01816172	     -0.00609715	      0.01318887	     -0.00557824	     -0.01271321	      0.02784798	     -0.03117763	     -0.02386970	      0.01474559	     -0.00748090	     -0.01582665	      0.03217220	     -0.03896122
